<?xml version="1.0" encoding="UTF-8" standalone="no"?>
<!DOCTYPE svg PUBLIC "-//W3C//DTD SVG 1.1//EN" "http://www.w3.org/Graphics/SVG/1.1/DTD/svg11.dtd">
<svg width="100%" height="100%" viewBox="0 0 107 108" version="1.1" xmlns="http://www.w3.org/2000/svg" xmlns:xlink="http://www.w3.org/1999/xlink" xml:space="preserve" xmlns:serif="http://www.serif.com/" style="fill-rule:evenodd;clip-rule:evenodd;stroke-linejoin:round;stroke-miterlimit:2;">
    <g transform="matrix(1,0,0,1,-9.3023,-10.8466)">
        <g transform="matrix(0.406844,0,0,0.406844,-14.5252,6.85658)">
            <g transform="matrix(0.462495,0.422331,-0.422331,0.462495,209.47,9.80724)">
                <path d="M0,0L62.14,0L62.14,357.31L0,357.31" style="fill:rgb(248,164,35);fill-rule:nonzero;"/>
                <path d="M0,0L62.14,0M0,0L62.14,0M62.14,0L62.14,357.31M62.14,0L62.14,357.31M62.14,357.31L0,357.31M62.14,357.31L0,357.31M0,357.31L0,0M0,357.31L0,0" style="fill:none;fill-rule:nonzero;"/>
            </g>
        </g>
        <g transform="matrix(0.406844,0,0,0.406844,-14.5252,6.85658)">
            <g transform="matrix(0.462495,0.422331,-0.422331,0.462495,292.286,83.5248)">
                <path d="M0,0L62.14,0L62.14,357.31L0,357.31" style="fill:rgb(248,164,35);fill-rule:nonzero;"/>
                <path d="M0,0L62.14,0M0,0L62.14,0M62.14,0L62.14,357.31M62.14,0L62.14,357.31M62.14,357.31L0,357.31M62.14,357.31L0,357.31M0,357.31L0,0M0,357.31L0,0" style="fill:none;fill-rule:nonzero;"/>
            </g>
        </g>
        <g transform="matrix(0.406844,0,0,0.406844,-14.5252,6.85658)">
            <g transform="matrix(0.623813,0.0558695,-0.0558695,0.623813,127.019,83.4891)">
                <path d="M0,0L51.43,0L51.43,295.71L0,295.71" style="fill:rgb(224,37,57);fill-rule:nonzero;"/>
                <path d="M0,0L51.43,0M0,0L51.43,0M51.43,0L51.43,295.71M51.43,0L51.43,295.71M51.43,295.71L0,295.71M51.43,295.71L0,295.71M0,295.71L0,0M0,295.71L0,0" style="fill:none;fill-rule:nonzero;"/>
            </g>
        </g>
        <g transform="matrix(0.406844,0,0,0.406844,-14.5252,6.85658)">
            <g transform="matrix(0.480608,-0.401597,0.401597,0.480608,126.689,83.3142)">
                <path d="M0,0L51.43,0L51.43,295.71L0,295.71" style="fill:rgb(224,37,57);fill-rule:nonzero;"/>
                <path d="M0,0L51.43,0M0,0L51.43,0M51.43,0L51.43,295.71M51.43,0L51.43,295.71M51.43,295.71L0,295.71M51.43,295.71L0,295.71M0,295.71L0,0M0,295.71L0,0" style="fill:none;fill-rule:nonzero;"/>
            </g>
        </g>
        <g transform="matrix(0.406844,0,0,0.406844,-14.5252,6.85658)">
            <g transform="matrix(0.623813,0.0558695,-0.0558695,0.623813,261.599,40.7346)">
                <path d="M0,0L51.43,0L51.43,295.71L0,295.71" style="fill:rgb(224,37,57);fill-rule:nonzero;"/>
                <path d="M0,0L51.43,0M0,0L51.43,0M51.43,0L51.43,295.71M51.43,0L51.43,295.71M51.43,295.71L0,295.71M51.43,295.71L0,295.71M0,295.71L0,0M0,295.71L0,0" style="fill:none;fill-rule:nonzero;"/>
            </g>
        </g>
    </g>
</svg>
